<?xml version="1.0" standalone="no"?>
<!DOCTYPE svg PUBLIC "-//W3C//DTD SVG 20010904//EN"
 "http://www.w3.org/TR/2001/REC-SVG-20010904/DTD/svg10.dtd">
<svg version="1.0" xmlns="http://www.w3.org/2000/svg"
 width="1746.000000pt" height="1746.000000pt" viewBox="0 0 1746.000000 1746.000000"
 preserveAspectRatio="xMidYMid meet">
<metadata>
Created by potrace 1.14, written by Peter Selinger 2001-2017
</metadata>
<g transform="translate(0.000000,1746.000000) scale(0.100000,-0.100000)"
fill="#000000" stroke="none">
<path d="M9984 16081 c-85 -52 -158 -220 -208 -476 -20 -100 -28 -171 -41
-335 -6 -78 -7 -409 -1 -465 3 -22 8 -71 11 -110 8 -87 33 -252 60 -386 15
-78 72 -282 115 -409 169 -508 396 -937 994 -1880 54 -85 106 -167 115 -182 9
-15 73 -121 142 -235 134 -220 214 -357 211 -360 0 -1 15 -28 34 -60 113 -186
326 -656 419 -923 110 -314 221 -762 260 -1045 3 -23 7 -50 9 -60 2 -11 7 -47
10 -80 4 -33 9 -73 11 -90 10 -79 21 -195 32 -350 15 -211 8 -747 -12 -975
-11 -118 -17 -178 -20 -200 -2 -14 -6 -54 -10 -90 -3 -36 -10 -87 -15 -115 -5
-27 -12 -72 -15 -100 -23 -194 -141 -738 -209 -965 -2 -8 -20 -69 -40 -135
-122 -416 -317 -876 -538 -1268 -21 -38 -38 -73 -38 -78 0 -5 -4 -9 -10 -9 -5
0 -10 -5 -10 -11 0 -25 -249 -421 -405 -644 -59 -84 -216 -298 -224 -305 -3
-3 -17 -21 -31 -40 -13 -19 -36 -48 -50 -64 -83 -96 -131 -147 -180 -191 -30
-28 -57 -52 -60 -55 -30 -32 -195 -143 -360 -243 -204 -123 -236 -145 -294
-197 -159 -146 -195 -326 -120 -605 54 -203 126 -472 135 -509 19 -76 90 -232
131 -287 23 -31 62 -69 87 -85 41 -26 55 -29 126 -29 68 0 89 4 136 28 124 62
222 192 374 497 113 226 153 291 257 415 268 322 590 561 1098 816 96 48 252
122 345 164 171 77 185 84 285 128 104 46 186 83 325 147 39 17 86 39 105 47
116 52 577 283 695 348 488 269 830 506 1124 780 47 44 223 231 306 325 110
125 210 292 234 394 31 127 -14 303 -86 335 -99 45 -229 -51 -450 -335 -195
-249 -447 -471 -743 -651 -103 -63 -454 -260 -575 -323 -269 -140 -445 -183
-630 -156 -125 18 -260 118 -288 213 -27 90 -11 169 60 302 109 201 370 466
763 773 313 244 481 359 645 441 101 50 186 86 507 211 280 109 435 193 527
286 52 53 141 163 141 175 0 4 8 19 18 33 56 81 80 204 55 279 -25 74 -128
129 -226 121 -56 -5 -85 -17 -205 -88 -59 -35 -83 -44 -130 -46 -159 -7 -286
163 -234 314 46 138 238 232 542 267 30 3 71 8 90 10 71 9 201 15 435 20 364
7 435 17 650 85 197 63 352 156 389 233 35 74 16 146 -58 219 -73 71 -104 83
-216 82 -80 -1 -128 -10 -295 -53 -239 -62 -323 -70 -387 -38 -55 29 -80 65
-86 125 -14 156 210 363 756 698 61 38 120 74 130 79 66 38 351 211 465 283
358 227 526 387 514 491 -11 95 -147 205 -282 229 -66 11 -124 8 -223 -12 -52
-11 -153 -51 -247 -99 -168 -86 -322 -193 -655 -456 -142 -111 -299 -222 -423
-297 -27 -16 -64 -38 -81 -49 -193 -118 -470 -261 -641 -330 -94 -38 -269 -93
-320 -100 -16 -3 -57 -9 -90 -14 -77 -11 -196 -6 -262 12 -65 17 -157 73 -188
113 -66 86 -105 190 -140 373 -2 13 -7 49 -10 80 -3 31 -8 65 -10 76 -6 33
-18 283 -18 385 -1 100 11 312 18 333 2 7 6 35 9 62 21 194 95 490 203 800 53
152 182 489 225 585 232 519 412 859 685 1293 217 344 276 436 362 567 302
461 553 742 839 938 62 43 254 146 322 172 83 33 195 118 231 176 31 50 33 86
8 138 -52 111 -208 173 -357 144 -26 -5 -57 -11 -70 -14 -147 -30 -487 -228
-695 -405 -43 -36 -227 -218 -267 -264 -197 -224 -395 -522 -651 -976 -8 -13
-16 -26 -19 -29 -3 -3 -16 -25 -29 -50 -69 -127 -371 -621 -496 -810 -403
-610 -772 -971 -1132 -1106 -34 -13 -77 -27 -95 -31 -55 -12 -180 -9 -229 5
-59 17 -133 74 -181 137 -65 86 -126 267 -145 430 -16 137 -9 502 12 635 2 14
7 45 10 70 17 113 52 247 170 635 106 351 173 625 191 775 3 25 7 51 10 59 14
42 22 293 14 421 -10 150 -59 230 -163 266 -81 27 -190 1 -248 -59 -48 -49
-59 -97 -64 -259 -5 -179 -14 -359 -21 -408 -2 -19 -6 -54 -9 -78 -6 -55 -36
-122 -66 -151 -62 -58 -166 -82 -243 -55 -105 38 -151 114 -161 269 -4 55 -8
116 -10 135 -2 19 -6 73 -10 120 -24 328 -39 450 -80 675 -64 344 -235 711
-377 808 -80 53 -146 28 -185 -73 -27 -70 -23 -241 11 -425 39 -219 73 -419
86 -510 6 -44 13 -90 15 -103 16 -96 21 -330 11 -477 -31 -451 -159 -621 -400
-531 -156 59 -265 158 -344 311 -57 112 -103 241 -128 360 -13 62 -34 177 -39
225 -4 30 -9 62 -10 71 -3 14 -14 132 -21 224 -4 61 -5 277 0 300 2 11 7 63
11 115 4 52 9 109 11 125 3 17 7 102 10 190 5 175 -10 295 -47 367 -44 86
-134 157 -199 158 -14 0 -39 -8 -56 -19z"/>
<path d="M7250 16056 c-117 -85 -151 -192 -145 -459 2 -95 6 -197 9 -227 4
-30 8 -73 11 -95 8 -76 18 -230 18 -280 0 -69 -20 -322 -29 -375 -2 -14 -7
-47 -10 -75 -11 -98 -54 -294 -85 -386 -70 -211 -139 -317 -285 -438 -6 -5
-38 -23 -71 -39 -172 -87 -330 -45 -408 108 -25 49 -54 131 -61 170 -3 14 -9
41 -14 60 -27 109 -31 455 -6 600 3 14 7 48 11 75 5 47 29 188 40 245 3 14 8
41 11 60 8 43 8 43 32 160 30 145 33 164 37 325 7 236 -21 331 -100 340 -41 5
-123 -75 -210 -206 -116 -173 -208 -410 -249 -644 -3 -16 -8 -41 -11 -55 -2
-13 -7 -42 -10 -65 -3 -22 -10 -67 -15 -100 -5 -33 -12 -91 -15 -130 -3 -38
-8 -86 -10 -105 -2 -19 -7 -78 -10 -130 -4 -52 -8 -115 -10 -140 -2 -25 -7
-92 -10 -150 -7 -126 -12 -154 -35 -200 -26 -50 -68 -86 -123 -104 -153 -51
-294 35 -312 191 -3 26 -8 59 -10 72 -5 27 -12 183 -20 403 -7 186 -29 235
-133 288 -81 42 -197 24 -269 -42 -52 -48 -72 -138 -74 -320 -1 -110 6 -247
15 -298 3 -14 8 -43 11 -65 20 -143 71 -361 140 -605 22 -79 40 -138 83 -280
72 -237 99 -342 117 -450 3 -19 8 -46 10 -60 5 -26 20 -139 33 -250 9 -84 9
-449 0 -520 -37 -267 -125 -432 -268 -499 -49 -23 -67 -26 -165 -25 -102 0
-117 3 -207 37 -53 21 -124 53 -158 72 -34 19 -64 35 -66 35 -7 0 -103 68
-174 123 -113 88 -260 232 -374 367 -39 47 -73 87 -77 90 -3 3 -51 66 -106
141 -175 235 -332 483 -623 984 -132 228 -279 476 -360 610 -76 125 -218 329
-307 441 -90 113 -311 340 -398 410 -90 71 -219 164 -229 164 -2 0 -33 17 -67
38 -77 46 -209 103 -304 131 -189 55 -341 51 -419 -10 -59 -47 -87 -154 -59
-235 14 -41 70 -105 115 -129 60 -34 125 -61 268 -110 229 -78 264 -98 395
-228 128 -129 147 -150 236 -272 52 -70 473 -693 524 -774 6 -9 12 -18 15 -21
3 -3 35 -50 71 -105 274 -414 413 -654 637 -1105 192 -385 280 -585 375 -850
79 -217 169 -527 191 -655 3 -16 8 -39 10 -50 2 -11 7 -40 11 -65 4 -25 9 -52
10 -60 1 -8 6 -40 10 -70 4 -30 9 -63 11 -73 23 -126 22 -641 -2 -806 -5 -37
-21 -130 -28 -166 -9 -46 -59 -182 -79 -215 -152 -253 -394 -255 -1004 -9
-469 189 -833 406 -1263 752 -286 230 -421 313 -600 368 -63 19 -97 23 -210
23 -118 0 -143 -3 -195 -23 -317 -124 -95 -479 508 -815 26 -14 68 -38 95 -52
134 -75 273 -157 417 -247 388 -242 521 -348 613 -487 33 -50 37 -62 37 -124
0 -68 0 -68 -43 -106 -78 -70 -152 -65 -492 31 -202 57 -285 59 -378 9 -121
-64 -154 -151 -102 -267 28 -63 133 -163 211 -201 179 -87 405 -129 804 -147
409 -19 534 -33 740 -84 281 -70 403 -189 341 -334 -22 -53 -93 -124 -152
-153 -71 -35 -107 -31 -300 36 -221 76 -290 76 -340 3 -15 -23 -19 -45 -18
-123 2 -283 171 -451 610 -609 282 -101 512 -213 764 -375 52 -33 100 -64 105
-68 482 -359 708 -531 785 -598 228 -197 369 -396 418 -588 52 -203 -28 -336
-228 -381 -45 -10 -272 -8 -320 3 -14 3 -48 11 -77 16 -99 21 -231 67 -368
130 -421 192 -987 660 -1304 1080 -141 187 -217 246 -298 237 -56 -6 -88 -28
-115 -80 -20 -36 -23 -57 -23 -152 0 -125 14 -179 77 -304 61 -118 142 -224
273 -356 213 -216 334 -308 775 -590 103 -66 375 -226 500 -295 63 -35 131
-72 150 -83 123 -69 741 -381 1000 -505 120 -57 293 -140 580 -280 420 -204
729 -412 980 -662 136 -136 191 -214 365 -530 147 -265 204 -349 310 -456 254
-255 438 -200 568 169 14 40 40 119 57 177 17 58 49 161 71 230 68 218 89 330
86 455 -7 231 -91 340 -366 475 -406 199 -675 473 -1045 1063 -47 76 -86 139
-86 141 0 2 -24 44 -54 92 -214 354 -300 508 -425 759 -286 576 -459 1101
-585 1770 -8 39 -27 153 -31 185 -2 14 -6 39 -9 55 -5 36 -13 93 -21 155 -4
25 -8 56 -10 70 -2 14 -6 57 -10 95 -3 39 -8 86 -10 105 -5 42 -15 167 -21
270 -6 106 -6 623 0 695 3 33 8 103 11 155 4 52 8 106 10 120 2 14 7 58 10 99
4 41 9 84 11 95 2 10 6 42 9 70 3 28 7 58 10 66 2 8 6 35 9 60 3 25 8 54 10
65 2 11 11 58 20 105 9 47 18 94 20 105 3 11 12 53 20 93 20 90 73 302 91 362
86 281 160 487 252 704 30 71 59 137 63 145 5 9 42 86 83 171 126 261 226 431
612 1045 437 694 540 870 719 1225 152 302 271 599 344 860 29 104 75 302 86
370 3 19 7 44 10 55 8 44 23 172 31 270 5 59 6 394 1 445 -2 19 -7 71 -11 114
-3 43 -8 86 -10 95 -1 9 -6 39 -9 66 -24 178 -77 368 -124 445 -86 140 -170
174 -262 106z"/>
<path d="M8101 12139 c-25 -5 -63 -11 -84 -15 -72 -10 -250 -73 -362 -128
-159 -78 -374 -223 -509 -346 -374 -336 -554 -544 -1143 -1325 -92 -123 -194
-272 -229 -335 -10 -19 -24 -42 -30 -50 -24 -32 -122 -230 -161 -325 -54 -133
-104 -292 -118 -380 -1 -11 -8 -47 -15 -80 -21 -102 -21 -383 0 -511 40 -247
119 -436 262 -624 40 -52 146 -154 213 -204 89 -66 206 -126 315 -161 47 -15
157 -52 246 -81 138 -46 340 -101 424 -118 14 -2 59 -12 100 -21 41 -9 113
-23 160 -31 47 -8 96 -17 110 -19 46 -9 75 -13 120 -19 25 -3 65 -8 90 -11 25
-3 54 -8 65 -10 11 -2 31 -4 43 -4 26 -1 25 7 7 -113 -3 -21 -7 -55 -10 -75
-3 -21 -10 -63 -15 -93 -5 -30 -12 -73 -15 -95 -13 -82 -17 -103 -46 -240 -37
-175 -93 -375 -129 -460 -4 -11 -14 -36 -21 -55 -12 -33 -91 -197 -120 -250
-77 -136 -179 -260 -375 -456 -183 -183 -267 -283 -321 -384 -31 -58 -69 -158
-77 -200 -3 -14 -8 -36 -11 -50 -13 -52 -13 -217 1 -288 29 -151 108 -302 216
-411 182 -184 424 -279 783 -307 103 -8 361 -3 535 11 41 3 104 8 140 10 63 5
133 11 215 20 22 3 83 9 135 15 176 18 195 21 228 25 217 28 245 32 292 40 14
2 96 15 183 30 l159 25 41 -36 c48 -40 146 -90 196 -99 19 -3 37 -8 40 -10 23
-14 332 -21 461 -11 19 2 78 7 130 11 52 4 106 8 120 10 14 2 50 6 80 9 166
20 217 36 275 87 120 106 103 263 -63 596 -97 194 -152 337 -196 513 -21 84
-59 299 -70 405 -19 163 -28 339 -19 361 3 10 16 11 46 6 70 -11 507 -6 572 7
401 81 607 426 516 866 -22 102 -71 240 -133 374 -215 463 -330 655 -483 806
l-51 50 58 75 c181 233 266 491 271 815 2 154 -18 297 -68 505 -23 93 -133
361 -187 453 -15 26 -28 50 -28 53 0 9 -88 151 -153 249 -53 79 -440 597 -566
758 -267 340 -544 638 -731 787 -24 19 -51 42 -60 50 -19 19 -171 127 -220
157 -82 50 -186 105 -253 133 -40 17 -81 35 -92 40 -47 20 -133 44 -280 76
-47 10 -355 12 -404 3z m992 -4812 c-4 -7 -26 -37 -49 -69 -169 -231 -206
-526 -92 -751 33 -66 140 -181 193 -207 17 -8 64 -34 105 -59 107 -64 313
-155 473 -209 l137 -46 -5 -31 c-3 -16 -7 -43 -10 -60 -3 -16 -8 -50 -11 -75
-3 -25 -7 -52 -9 -60 -3 -8 -7 -33 -11 -55 -5 -34 -39 -220 -49 -265 -26 -121
-76 -275 -117 -357 -17 -35 -32 -63 -34 -63 -2 0 -67 96 -144 213 -77 116
-143 217 -147 223 -33 44 -140 242 -191 351 -112 241 -235 602 -281 823 -5 25
-12 54 -14 65 -9 34 -48 238 -53 270 -2 17 -6 41 -9 55 -17 85 -37 272 -29
280 5 4 50 11 99 14 86 5 208 17 212 20 1 1 11 2 23 3 13 1 18 -2 13 -10z"/>
</g>
</svg>
